<?xml version="1.0" encoding="UTF-8" standalone="no"?>
<!DOCTYPE svg PUBLIC "-//W3C//DTD SVG 1.1//EN"
 "http://www.w3.org/Graphics/SVG/1.1/DTD/svg11.dtd">
<!-- Generated by graphviz version 12.1.1 (20240910.0053)
 -->
<!-- Title: INFRA Pages: 1 -->
<svg width="370pt" height="188pt"
 viewBox="0.00 0.00 369.98 188.00" xmlns="http://www.w3.org/2000/svg" xmlns:xlink="http://www.w3.org/1999/xlink">
<g id="graph0" class="graph" transform="scale(1 1) rotate(0) translate(4 184)">
<title>INFRA</title>
<polygon fill="white" stroke="none" points="-4,4 -4,-184 365.98,-184 365.98,4 -4,4"/>
<!-- ECR Repository -->
<g id="node1" class="node">
<title>ECR Repository</title>
<path fill="#fff5cd" stroke="black" stroke-width="2" d="M169.25,-65.45C169.25,-69.07 131.32,-72 84.62,-72 37.93,-72 0,-69.07 0,-65.45 0,-65.45 0,-6.55 0,-6.55 0,-2.93 37.93,0 84.62,0 131.32,0 169.25,-2.93 169.25,-6.55 169.25,-6.55 169.25,-65.45 169.25,-65.45"/>
<path fill="none" stroke="black" stroke-width="2" d="M169.25,-65.45C169.25,-61.84 131.32,-58.91 84.62,-58.91 37.93,-58.91 0,-61.84 0,-65.45"/>
<text text-anchor="middle" x="84.62" y="-40.2" font-family="Arial" font-size="14.00">ECR Repository</text>
<text text-anchor="middle" x="84.62" y="-23.4" font-family="Arial" font-size="14.00">(AWS::ECR::Repository)</text>
</g>
<!-- Docker Image -->
<g id="node2" class="node">
<title>Docker Image</title>
<path fill="#b7e0ff" stroke="black" stroke-width="2" d="M130.8,-180C130.8,-180 38.44,-180 38.44,-180 32.44,-180 26.44,-174 26.44,-168 26.44,-168 26.44,-120 26.44,-120 26.44,-114 32.44,-108 38.44,-108 38.44,-108 130.8,-108 130.8,-108 136.8,-108 142.8,-114 142.8,-120 142.8,-120 142.8,-168 142.8,-168 142.8,-174 136.8,-180 130.8,-180"/>
<text text-anchor="middle" x="84.62" y="-148.2" font-family="Arial" font-size="14.00">Docker Image</text>
<text text-anchor="middle" x="84.62" y="-131.4" font-family="Arial" font-size="14.00">(Docker::Image)</text>
</g>
<!-- Docker Image&#45;&gt;ECR Repository -->
<g id="edge1" class="edge">
<title>Docker Image&#45;&gt;ECR Repository</title>
<path fill="none" stroke="black" d="M84.62,-107.7C84.62,-99.93 84.62,-91.57 84.62,-83.43"/>
<polygon fill="black" stroke="black" points="88.12,-83.66 84.62,-73.66 81.12,-83.66 88.12,-83.66"/>
</g>
<!-- MySQL Database -->
<g id="node3" class="node">
<title>MySQL Database</title>
<path fill="#ffcfb3" stroke="black" stroke-width="2" d="M361.98,-65.45C361.98,-69.07 322.82,-72 274.62,-72 226.42,-72 187.27,-69.07 187.27,-65.45 187.27,-65.45 187.27,-6.55 187.27,-6.55 187.27,-2.93 226.42,0 274.62,0 322.82,0 361.98,-2.93 361.98,-6.55 361.98,-6.55 361.98,-65.45 361.98,-65.45"/>
<path fill="none" stroke="black" stroke-width="2" d="M361.98,-65.45C361.98,-61.84 322.82,-58.91 274.62,-58.91 226.42,-58.91 187.27,-61.84 187.27,-65.45"/>
<text text-anchor="middle" x="274.62" y="-40.2" font-family="Arial" font-size="14.00">MySQL Database</text>
<text text-anchor="middle" x="274.62" y="-23.4" font-family="Arial" font-size="14.00">(AWS::RDS::DBInstance)</text>
</g>
<!-- NestJS Application -->
<g id="node4" class="node">
<title>NestJS Application</title>
<path fill="#b7e0ff" stroke="black" stroke-width="2" d="M338.31,-180C338.31,-180 210.94,-180 210.94,-180 204.94,-180 198.94,-174 198.94,-168 198.94,-168 198.94,-120 198.94,-120 198.94,-114 204.94,-108 210.94,-108 210.94,-108 338.31,-108 338.31,-108 344.31,-108 350.31,-114 350.31,-120 350.31,-120 350.31,-168 350.31,-168 350.31,-174 344.31,-180 338.31,-180"/>
<text text-anchor="middle" x="274.62" y="-148.2" font-family="Arial" font-size="14.00">NestJS Application</text>
<text text-anchor="middle" x="274.62" y="-131.4" font-family="Arial" font-size="14.00">(Custom::NestJSApp)</text>
</g>
<!-- NestJS Application&#45;&gt;MySQL Database -->
<g id="edge2" class="edge">
<title>NestJS Application&#45;&gt;MySQL Database</title>
<path fill="none" stroke="black" d="M274.62,-107.7C274.62,-99.93 274.62,-91.57 274.62,-83.43"/>
<polygon fill="black" stroke="black" points="278.12,-83.66 274.62,-73.66 271.12,-83.66 278.12,-83.66"/>
</g>
</g>
</svg>
